# Blender 4.0.2
# www.blender.org
o Losangle
v 1.000000 0.100000 2.000000
v 1.000000 -0.100000 2.000000
v 1.000000 0.100000 0.000000
v 1.000000 -0.100000 0.000000
v -1.000000 0.100000 0.000000
v -1.000000 -0.100000 0.000000
v -1.000000 0.100000 -2.002369
v -1.000000 -0.100000 -2.002369
vn 0.0579 -0.9885 0.1398
vn 0.1130 0.9925 -0.0467
vn 0.0579 0.9885 0.1398
vn -0.1130 0.9925 0.0468
vn 0.1130 -0.9925 -0.0467
vn -0.1130 -0.9925 0.0468
vn -0.0579 -0.9885 -0.1398
vn -0.0579 0.9885 -0.1398
vt 0.625000 0.000000
vt 0.375000 0.250000
vt 0.375000 0.000000
vt 0.375000 0.500000
vt 0.125000 0.750000
vt 0.125000 0.500000
vt 0.625000 0.250000
vt 0.625000 0.500000
vt 0.875000 0.500000
vt 0.875000 0.750000
s 1
f 2/1/1 3/2/2 1/3/3
f 5/4/4 1/5/3 3/6/2
f 2/1/1 4/7/5 3/2/2
f 6/8/6 4/9/5 2/10/1
f 8/1/7 5/2/4 7/3/8
f 3/4/2 7/5/8 5/6/4
f 8/1/7 6/7/6 5/2/4
f 4/8/5 6/9/6 8/10/7
f 4/8/5 7/5/8 3/4/2
f 4/8/5 8/10/7 7/5/8
f 1/5/3 5/4/4 6/8/6
f 2/10/1 1/5/3 6/8/6
