# Blender 4.0.2
# www.blender.org
o Small_Triangle
v -1.000000 -0.100000 1.000000
v -1.000000 0.100000 1.000000
v 1.000000 -0.100000 1.000000
v 1.000000 0.100000 1.000000
v 1.000000 -0.100000 -1.000000
v 1.000000 0.100000 -1.000000
vn -0.1398 0.9885 0.0579
vn 0.0579 0.9885 -0.1398
vn 0.0579 -0.9885 -0.1398
vn 0.0990 -0.9901 0.0990
vn 0.0990 0.9901 0.0990
vn -0.1398 -0.9885 0.0579
vt 0.875000 0.750000
vt 0.625000 0.500000
vt 0.375000 0.500000
vt 0.375000 0.750000
vt 0.625000 0.750000
vt 0.375000 1.000000
vt 0.125000 0.750000
vt 0.625000 1.000000
s 1
f 2/1/1 6/2/2 5/3/3
f 6/2/2 3/4/4 5/3/3
f 4/5/5 1/6/6 3/4/4
f 2/1/1 5/3/3 1/7/6
f 6/2/2 4/5/5 3/4/4
f 4/5/5 2/8/1 1/6/6
f 5/3/3 3/4/4 1/7/6
f 6/2/2 2/1/1 4/5/5
